<svg width="22" height="22" viewBox="0 0 22 22" fill="none" xmlns="http://www.w3.org/2000/svg">
<path d="M16 1H6C3.23858 1 1 3.20954 1 5.93514V15.8054C1 18.531 3.23858 20.7406 6 20.7406H16C18.7614 20.7406 21 18.531 21 15.8054V5.93514C21 3.20954 18.7614 1 16 1Z" stroke="white" stroke-width="1.5" stroke-linecap="round" stroke-linejoin="round"/>
<path d="M14.9997 10.2479C15.1231 11.0694 14.981 11.9083 14.5935 12.6454C14.206 13.3825 13.5929 13.9803 12.8413 14.3536C12.0898 14.727 11.2382 14.8569 10.4075 14.725C9.57683 14.5931 8.80947 14.206 8.21455 13.6188C7.61962 13.0316 7.22744 12.2741 7.09377 11.4543C6.96011 10.6344 7.09177 9.79376 7.47003 9.05199C7.8483 8.31022 8.45389 7.70506 9.20069 7.32259C9.94749 6.94011 10.7975 6.7998 11.6297 6.92162C12.4786 7.04587 13.2646 7.43631 13.8714 8.03529C14.4783 8.63426 14.8738 9.40999 14.9997 10.2479Z" stroke="white" stroke-width="1.5" stroke-linecap="round" stroke-linejoin="round"/>
<path d="M16.5 5.44141H16.51" stroke="white" stroke-width="1.5" stroke-linecap="round" stroke-linejoin="round"/>
</svg>
