<svg width="18" height="18" viewBox="0 0 18 18" fill="none" xmlns="http://www.w3.org/2000/svg">
<path d="M4.19922 6.6V1H13.7992V6.6" stroke="white" stroke-width="1.5" stroke-linecap="round" stroke-linejoin="round"/>
<path d="M4.2 13.8001H2.6C2.17565 13.8001 1.76869 13.6315 1.46863 13.3315C1.16857 13.0314 1 12.6244 1 12.2001V8.2001C1 7.77575 1.16857 7.36879 1.46863 7.06873C1.76869 6.76867 2.17565 6.6001 2.6 6.6001H15.4C15.8243 6.6001 16.2313 6.76867 16.5314 7.06873C16.8314 7.36879 17 7.77575 17 8.2001V12.2001C17 12.6244 16.8314 13.0314 16.5314 13.3315C16.2313 13.6315 15.8243 13.8001 15.4 13.8001H13.8" stroke="white" stroke-width="1.5" stroke-linecap="round" stroke-linejoin="round"/>
<path d="M13.7992 10.6001H4.19922V17.0001H13.7992V10.6001Z" stroke="white" stroke-width="1.5" stroke-linecap="round" stroke-linejoin="round"/>
</svg>
