<svg width="20" height="23" viewBox="0 0 20 23" fill="none" xmlns="http://www.w3.org/2000/svg">
<path d="M7.24969 22.3705C5.62127 22.3705 4.08548 21.851 2.80836 20.8679C2.5698 20.6844 2.34041 20.4839 2.12632 20.2724C0.635534 18.7991 -0.114664 16.8369 0.0142287 14.7471C0.111663 13.1676 0.747824 11.6449 1.80649 10.4595C3.20858 8.88965 5.14153 8.02498 7.25012 8.02498C7.61233 8.02498 7.97804 8.05207 8.33807 8.10537L8.89733 8.18839V13.1514L8.03615 12.867C7.78536 12.784 7.52451 12.742 7.26061 12.742C6.59386 12.742 5.9695 13.0033 5.50243 13.4774C5.03754 13.9492 4.78718 14.5732 4.7968 15.2351C4.80947 16.0884 5.25906 16.8618 5.99921 17.3048C6.34001 17.5084 6.728 17.6277 7.12211 17.6495C7.4332 17.6666 7.74035 17.6259 8.03571 17.5285C9.04544 17.1951 9.72399 16.2584 9.72399 15.198L9.72836 10.051V0H14.4716L14.4773 0.649269C14.4799 0.943319 14.5101 1.23737 14.5669 1.52224C14.7897 2.64252 15.418 3.64089 16.336 4.33297C17.1508 4.94773 18.1234 5.27236 19.1476 5.27236C19.1716 5.27236 19.1716 5.27236 19.3905 5.28765L20 5.33047V9.35017V10.0056L19.7815 10.0051H19.3459C19.3424 10.0051 19.3389 10.0051 19.335 10.0051H19.1257C19.1248 10.0051 19.1235 10.0051 19.1222 10.0051C17.8591 10.0051 16.6754 9.76437 15.5023 9.26934C15.1528 9.12166 14.8124 8.95301 14.4838 8.76469L14.4987 15.2229C14.4908 17.1331 13.7358 18.9249 12.3731 20.272C11.2672 21.3647 9.87167 22.0629 8.33719 22.2901C7.97935 22.3434 7.61365 22.3705 7.24969 22.3705ZM7.24969 9.33575C5.51991 9.33575 3.93387 10.0449 2.78389 11.3325C1.92053 12.2994 1.40146 13.5407 1.32194 14.8274C1.21708 16.5336 1.82965 18.1363 3.04735 19.3396C3.22343 19.5135 3.41175 19.6782 3.60749 19.8289C4.65349 20.6342 5.91314 21.0597 7.24969 21.0597C7.54942 21.0597 7.85046 21.0374 8.14538 20.9938C9.40241 20.8076 10.5458 20.2357 11.452 19.34C12.5653 18.2398 13.1818 16.7774 13.1884 15.222L13.1678 6.20432L14.2265 7.02093C14.7731 7.44256 15.3743 7.79297 16.0126 8.06256C16.8852 8.43088 17.7647 8.63536 18.6888 8.68386V6.56697C17.5467 6.48133 16.4679 6.07543 15.5464 5.38028C14.3711 4.4942 13.5667 3.21489 13.281 1.77872C13.2504 1.62448 13.2255 1.4685 13.2071 1.31121H11.0387V10.0514L11.0343 15.1984C11.0343 16.8251 9.99444 18.2617 8.44642 18.7729C7.99508 18.9219 7.52539 18.9839 7.05001 18.9581C6.44444 18.9249 5.84847 18.7418 5.32591 18.4294C4.19297 17.7518 3.50481 16.5647 3.48559 15.2543C3.47073 14.2389 3.85479 13.2812 4.56785 12.5572C5.28309 11.831 6.23908 11.4312 7.25974 11.4312C7.36897 11.4312 7.47732 11.436 7.58568 11.4452V9.34493C7.47383 9.33881 7.36154 9.33575 7.24969 9.33575Z" fill="white"/>
</svg>
