<svg width="24" height="20" viewBox="0 0 24 20" fill="none" xmlns="http://www.w3.org/2000/svg">
<path d="M23 1.00993C22.0424 1.67664 20.9821 2.18657 19.86 2.52008C19.2577 1.83657 18.4573 1.35212 17.567 1.13224C16.6767 0.912368 15.7395 0.967676 14.8821 1.29069C14.0247 1.6137 13.2884 2.18883 12.773 2.9383C12.2575 3.68776 11.9877 4.5754 12 5.48116V6.46819C10.2426 6.51317 8.50127 6.12847 6.93101 5.34836C5.36074 4.56824 4.01032 3.41693 3 1.99695C3 1.99695 -1 10.8802 8 14.8283C5.94053 16.2082 3.48716 16.9 1 16.8024C10 21.7375 21 16.8024 21 5.45155C20.9991 5.17662 20.9723 4.90237 20.92 4.63232C21.9406 3.63887 22.6608 2.38457 23 1.00993V1.00993Z" stroke="white" stroke-width="1.5" stroke-linecap="round" stroke-linejoin="round"/>
</svg>
