<svg width="24" height="18" viewBox="0 0 24 18" fill="none" xmlns="http://www.w3.org/2000/svg">
<path d="M22.5406 3.38861C22.4218 2.92017 22.1798 2.49098 21.8392 2.14437C21.4986 1.79776 21.0713 1.54601 20.6006 1.41455C18.8806 1 12.0006 1 12.0006 1C12.0006 1 5.12057 1 3.40057 1.45403C2.92982 1.58549 2.50255 1.83724 2.16192 2.18385C1.82129 2.53046 1.57936 2.95966 1.46057 3.42809C1.14579 5.151 0.991808 6.89879 1.00057 8.64947C0.989351 10.4133 1.14334 12.1744 1.46057 13.9103C1.59153 14.3642 1.83888 14.7771 2.17871 15.1091C2.51855 15.441 2.93939 15.6809 3.40057 15.8054C5.12057 16.2595 12.0006 16.2595 12.0006 16.2595C12.0006 16.2595 18.8806 16.2595 20.6006 15.8054C21.0713 15.674 21.4986 15.4222 21.8392 15.0756C22.1798 14.729 22.4218 14.2998 22.5406 13.8314C22.8529 12.1214 23.0069 10.387 23.0006 8.64947C23.0118 6.88561 22.8578 5.12449 22.5406 3.38861V3.38861Z" stroke="white" stroke-width="1.5" stroke-linecap="round" stroke-linejoin="round"/>
<path d="M9.75049 11.877L15.5005 8.64946L9.75049 5.42188V11.877Z" stroke="white" stroke-width="1.5" stroke-linecap="round" stroke-linejoin="round"/>
</svg>
