<svg width="22" height="17" viewBox="0 0 22 17" fill="none" xmlns="http://www.w3.org/2000/svg">
<path d="M12.6367 15.2023L20.7435 3.48581C20.9106 3.23522 20.9991 2.95111 21 2.66175C21.0009 2.37238 20.9143 2.08785 20.7488 1.83645C20.5833 1.58506 20.3446 1.37557 20.0565 1.22882C19.7685 1.08207 19.441 1.00318 19.1068 1L2.8932 1C2.55898 1.00318 2.23153 1.08207 1.94346 1.22882C1.65538 1.37557 1.41671 1.58506 1.25119 1.83645C1.08567 2.08785 0.999072 2.37238 1.00001 2.66175C1.00094 2.95111 1.08938 3.23522 1.25653 3.48581L9.36333 15.2023C9.53395 15.4458 9.7742 15.6471 10.0609 15.7869C10.3476 15.9266 10.671 16 11 16C11.329 16 11.6524 15.9266 11.9391 15.7869C12.2258 15.6471 12.466 15.4458 12.6367 15.2023Z" fill="#EB5757" stroke="#EB5757" stroke-width="2" stroke-linecap="round" stroke-linejoin="round"/>
</svg>
