<svg width="22" height="17" viewBox="0 0 22 17" fill="none" xmlns="http://www.w3.org/2000/svg">
<path d="M9.36333 1.79773L1.25653 13.5142C1.08938 13.7648 1.00094 14.0489 1.00001 14.3383C0.999072 14.6276 1.08567 14.9122 1.25119 15.1635C1.41671 15.4149 1.65538 15.6244 1.94346 15.7712C2.23153 15.9179 2.55897 15.9968 2.8932 16H19.1068C19.441 15.9968 19.7685 15.9179 20.0565 15.7712C20.3446 15.6244 20.5833 15.4149 20.7488 15.1635C20.9143 14.9122 21.0009 14.6276 21 14.3383C20.9991 14.0489 20.9106 13.7648 20.7435 13.5142L12.6367 1.79773C12.466 1.55421 12.2258 1.35287 11.9391 1.21314C11.6524 1.07341 11.329 1 11 1C10.671 1 10.3476 1.07341 10.0609 1.21314C9.7742 1.35287 9.53395 1.55421 9.36333 1.79773Z" fill="#00A389" stroke="#00A389" stroke-width="2" stroke-linecap="round" stroke-linejoin="round"/>
</svg>
